<svg xmlns="http://www.w3.org/2000/svg" xmlns:xlink="http://www.w3.org/1999/xlink" width="600" zoomAndPan="magnify" viewBox="0 0 450 149.999998" height="200" preserveAspectRatio="xMidYMid meet" version="1.0"><defs><g/><clipPath id="6e4b83b4ea"><path d="M 56 23 L 153 23 L 153 136.5 L 56 136.5 Z M 56 23 " clip-rule="nonzero"/></clipPath><clipPath id="0125374401"><path d="M 154 52 L 172.363281 52 L 172.363281 70 L 154 70 Z M 154 52 " clip-rule="nonzero"/></clipPath><clipPath id="d56983dce4"><path d="M 42.613281 88 L 57 88 L 57 103 L 42.613281 103 Z M 42.613281 88 " clip-rule="nonzero"/></clipPath></defs><g clip-path="url(#6e4b83b4ea)"><path fill="#000000" d="M 144.832031 126.585938 C 143.996094 126.078125 143.460938 125.414062 143.183594 124.492188 C 142.046875 120.703125 140.671875 116.988281 139.121094 113.351562 C 138.40625 111.667969 138.179688 110.171875 139.019531 108.457031 C 139.609375 107.253906 139.378906 106.867188 138.164062 106.347656 C 147.253906 97.628906 152.910156 85.375 152.910156 71.800781 C 152.910156 45.335938 131.398438 23.878906 104.867188 23.878906 C 78.335938 23.878906 56.824219 45.335938 56.824219 71.800781 C 56.824219 85.367188 62.472656 97.617188 71.550781 106.332031 C 70.484375 106.683594 70.269531 107.371094 70.75 108.40625 C 71.40625 109.820312 71.625 111.195312 70.9375 112.757812 C 69.234375 116.625 67.75 120.582031 66.5625 124.644531 C 66.378906 125.277344 66.101562 125.9375 65.5 126.214844 C 63.671875 127.0625 63.109375 128.652344 62.785156 130.441406 C 62.539062 131.796875 62.832031 132.375 64.140625 132.9375 C 65.660156 133.589844 67.28125 133.882812 68.886719 134.179688 C 76.257812 135.539062 83.742188 135.773438 91.195312 136.210938 C 95.949219 136.488281 100.730469 136.261719 105.496094 136.261719 C 105.496094 136.269531 105.5 136.28125 105.5 136.289062 C 108.96875 136.289062 112.441406 136.292969 115.910156 136.285156 C 117.054688 136.285156 118.207031 136.328125 119.34375 136.226562 C 124.925781 135.726562 130.539062 135.625 136.097656 134.902344 C 139.347656 134.480469 142.605469 134.054688 145.707031 132.890625 C 146.3125 132.660156 146.796875 132.351562 146.941406 131.675781 C 147.320312 129.886719 146.382812 127.523438 144.832031 126.585938 Z M 132.242188 129.242188 C 131.636719 129.339844 131.035156 129.429688 130.429688 129.515625 C 129.828125 129.605469 129.222656 129.671875 128.613281 129.753906 L 126.796875 129.96875 L 124.972656 130.152344 L 123.152344 130.316406 C 122.542969 130.378906 121.933594 130.417969 121.324219 130.464844 L 120.414062 130.53125 L 119.5 130.589844 L 117.671875 130.710938 L 115.84375 130.800781 C 114.625 130.863281 113.40625 130.898438 112.183594 130.949219 C 111.574219 130.976562 110.964844 130.984375 110.355469 131 L 108.527344 131.039062 L 104.863281 131.085938 L 101.203125 131.074219 L 99.371094 131.046875 C 98.761719 131.035156 98.152344 131.03125 97.542969 131.011719 L 95.710938 130.949219 C 95.101562 130.929688 94.492188 130.910156 93.882812 130.878906 L 92.054688 130.796875 C 91.445312 130.765625 90.835938 130.71875 90.226562 130.683594 C 89.617188 130.644531 89.007812 130.605469 88.398438 130.558594 C 87.789062 130.511719 87.179688 130.46875 86.574219 130.414062 L 84.75 130.242188 L 82.929688 130.050781 C 82.324219 129.980469 81.714844 129.898438 81.109375 129.824219 C 80.503906 129.742188 79.902344 129.667969 79.296875 129.570312 C 78.089844 129.390625 76.886719 129.183594 75.691406 128.917969 L 75.707031 128.851562 C 76.308594 128.9375 76.914062 129 77.519531 129.0625 L 78.425781 129.15625 L 79.335938 129.238281 L 81.15625 129.386719 C 81.761719 129.429688 82.371094 129.476562 82.976562 129.511719 L 84.796875 129.625 L 86.621094 129.71875 C 87.835938 129.769531 89.050781 129.835938 90.265625 129.871094 C 91.480469 129.914062 92.699219 129.941406 93.914062 129.976562 C 94.523438 129.996094 95.128906 130.003906 95.738281 130.011719 L 97.5625 130.039062 L 101.210938 130.074219 L 104.863281 130.066406 L 108.511719 130.042969 L 112.160156 129.980469 C 113.378906 129.953125 114.59375 129.941406 115.8125 129.898438 L 117.636719 129.84375 L 119.460938 129.78125 L 120.371094 129.75 L 121.285156 129.710938 L 123.105469 129.628906 L 124.929688 129.539062 L 126.753906 129.433594 L 128.574219 129.320312 L 130.394531 129.183594 L 131.304688 129.113281 L 132.214844 129.03125 C 132.820312 128.976562 133.429688 128.921875 134.03125 128.847656 L 134.046875 128.917969 C 133.445312 129.039062 132.84375 129.140625 132.242188 129.242188 Z M 125.375 116.015625 L 123.804688 116.195312 C 121.707031 116.410156 119.605469 116.578125 117.5 116.710938 L 115.925781 116.808594 L 114.34375 116.882812 C 113.292969 116.9375 112.238281 116.96875 111.1875 117.007812 C 110.660156 117.03125 110.132812 117.039062 109.605469 117.050781 L 108.027344 117.082031 L 104.863281 117.125 L 101.703125 117.113281 C 100.648438 117.097656 99.59375 117.085938 98.539062 117.0625 L 96.960938 117.011719 C 96.433594 116.992188 95.90625 116.976562 95.378906 116.953125 L 93.800781 116.882812 C 93.273438 116.855469 92.746094 116.820312 92.222656 116.789062 C 91.695312 116.757812 91.167969 116.726562 90.644531 116.683594 C 90.117188 116.644531 89.59375 116.609375 89.066406 116.566406 L 87.492188 116.421875 L 85.917969 116.261719 L 84.347656 116.078125 C 83.824219 116.007812 83.300781 115.945312 82.78125 115.863281 C 81.738281 115.714844 80.699219 115.542969 79.667969 115.320312 L 79.675781 115.273438 C 80.195312 115.351562 80.71875 115.410156 81.242188 115.46875 L 82.027344 115.554688 L 82.8125 115.628906 L 84.382812 115.769531 L 85.953125 115.882812 C 88.050781 116.035156 90.152344 116.132812 92.25 116.210938 C 94.351562 116.289062 96.453125 116.34375 98.554688 116.371094 L 101.707031 116.402344 L 104.859375 116.398438 L 108.015625 116.375 L 111.167969 116.320312 C 112.21875 116.296875 113.269531 116.28125 114.320312 116.242188 L 115.894531 116.195312 L 117.472656 116.136719 C 119.570312 116.050781 121.671875 115.957031 123.769531 115.816406 L 125.34375 115.710938 L 126.917969 115.585938 C 127.441406 115.542969 127.964844 115.492188 128.488281 115.445312 C 129.011719 115.390625 129.535156 115.339844 130.054688 115.273438 L 130.066406 115.324219 C 129.03125 115.519531 127.988281 115.679688 126.941406 115.816406 C 126.417969 115.894531 125.898438 115.953125 125.375 116.015625 Z M 126.179688 121.976562 C 125.304688 122.144531 124.421875 122.277344 123.539062 122.394531 C 123.097656 122.457031 122.65625 122.503906 122.214844 122.5625 L 120.882812 122.710938 C 119.109375 122.894531 117.332031 123.039062 115.554688 123.148438 L 114.21875 123.230469 L 112.882812 123.292969 C 111.992188 123.339844 111.101562 123.367188 110.210938 123.398438 C 109.765625 123.417969 109.320312 123.425781 108.875 123.433594 L 107.539062 123.464844 L 104.863281 123.496094 L 102.191406 123.488281 C 101.296875 123.476562 100.40625 123.464844 99.515625 123.445312 L 98.179688 123.402344 C 97.734375 123.386719 97.289062 123.375 96.84375 123.351562 L 95.503906 123.292969 C 95.058594 123.269531 94.613281 123.238281 94.171875 123.214844 C 93.726562 123.1875 93.28125 123.160156 92.835938 123.125 C 92.390625 123.09375 91.945312 123.0625 91.503906 123.023438 L 90.167969 122.90625 L 88.839844 122.769531 L 87.511719 122.613281 C 87.066406 122.550781 86.625 122.5 86.183594 122.429688 C 85.300781 122.304688 84.421875 122.160156 83.550781 121.972656 L 83.558594 121.929688 C 84 121.996094 84.441406 122.046875 84.882812 122.097656 L 85.546875 122.167969 L 86.210938 122.230469 L 87.539062 122.347656 L 88.867188 122.445312 C 90.640625 122.574219 92.417969 122.65625 94.195312 122.726562 C 95.972656 122.789062 97.75 122.835938 99.527344 122.859375 L 102.195312 122.886719 L 104.863281 122.882812 L 107.53125 122.863281 L 110.195312 122.816406 C 111.085938 122.796875 111.976562 122.785156 112.863281 122.75 L 114.195312 122.710938 L 115.53125 122.660156 C 117.304688 122.589844 119.082031 122.507812 120.859375 122.390625 L 122.1875 122.300781 L 123.519531 122.195312 C 123.960938 122.160156 124.40625 122.117188 124.847656 122.078125 C 125.289062 122.03125 125.734375 121.992188 126.175781 121.933594 Z M 135.867188 102.726562 C 133.921875 104.667969 131.816406 106.410156 129.574219 107.9375 C 123.40625 108.902344 115.601562 109.363281 105.738281 109.363281 C 94.59375 109.363281 86.078125 108.773438 79.578125 107.535156 C 77.550781 106.105469 75.644531 104.5 73.867188 102.726562 C 69.839844 98.707031 66.675781 94.03125 64.46875 88.824219 C 62.183594 83.433594 61.027344 77.707031 61.027344 71.800781 C 61.027344 65.894531 62.183594 60.167969 64.46875 54.78125 C 66.675781 49.574219 69.839844 44.894531 73.867188 40.878906 C 77.894531 36.859375 82.582031 33.707031 87.804688 31.503906 C 93.207031 29.222656 98.945312 28.070312 104.867188 28.070312 C 110.789062 28.070312 116.527344 29.222656 121.929688 31.503906 C 127.148438 33.707031 131.839844 36.859375 135.867188 40.878906 C 139.894531 44.894531 143.054688 49.574219 145.265625 54.78125 C 147.550781 60.167969 148.707031 65.894531 148.707031 71.800781 C 148.707031 77.707031 147.546875 83.433594 145.265625 88.824219 C 143.054688 94.03125 139.894531 98.707031 135.867188 102.726562 Z M 135.867188 102.726562 " fill-opacity="1" fill-rule="nonzero"/></g><path fill="#000000" d="M 104.867188 35.078125 C 104.867188 35.003906 104.667969 34.9375 104.289062 34.878906 C 104.097656 34.851562 103.863281 34.824219 103.582031 34.796875 C 103.304688 34.773438 102.980469 34.738281 102.617188 34.742188 C 101.890625 34.738281 101 34.722656 99.96875 34.820312 C 99.710938 34.839844 99.445312 34.859375 99.167969 34.882812 C 98.890625 34.910156 98.609375 34.953125 98.316406 34.992188 C 98.027344 35.03125 97.726562 35.074219 97.417969 35.117188 C 97.109375 35.15625 96.796875 35.230469 96.476562 35.289062 C 96.15625 35.351562 95.824219 35.417969 95.488281 35.484375 C 95.152344 35.558594 94.816406 35.652344 94.46875 35.738281 C 94.121094 35.832031 93.761719 35.914062 93.40625 36.023438 C 93.046875 36.132812 92.683594 36.25 92.316406 36.367188 C 92.128906 36.425781 91.945312 36.484375 91.757812 36.542969 C 91.570312 36.613281 91.382812 36.683594 91.195312 36.753906 C 90.820312 36.894531 90.4375 37.039062 90.050781 37.1875 C 89.667969 37.355469 89.28125 37.523438 88.890625 37.695312 C 88.695312 37.78125 88.496094 37.863281 88.296875 37.957031 C 88.105469 38.054688 87.90625 38.152344 87.710938 38.25 C 86.121094 39.015625 84.523438 39.976562 82.933594 41.089844 C 82.734375 41.230469 82.535156 41.371094 82.335938 41.515625 L 82.035156 41.730469 L 81.746094 41.957031 C 81.355469 42.265625 80.964844 42.574219 80.570312 42.886719 C 80.1875 43.222656 79.804688 43.558594 79.417969 43.894531 C 79.222656 44.058594 79.035156 44.238281 78.851562 44.417969 C 78.664062 44.601562 78.476562 44.78125 78.289062 44.960938 C 76.804688 46.429688 75.460938 47.992188 74.28125 49.601562 C 73.113281 51.21875 72.109375 52.882812 71.25 54.523438 C 71.046875 54.941406 70.847656 55.355469 70.648438 55.761719 C 70.601562 55.863281 70.550781 55.964844 70.5 56.066406 C 70.457031 56.167969 70.414062 56.269531 70.367188 56.375 C 70.28125 56.578125 70.195312 56.785156 70.105469 56.988281 C 69.746094 57.789062 69.46875 58.605469 69.183594 59.382812 C 69.109375 59.578125 69.050781 59.773438 68.988281 59.96875 C 68.929688 60.164062 68.871094 60.359375 68.8125 60.550781 C 68.75 60.742188 68.695312 60.933594 68.636719 61.121094 C 68.609375 61.214844 68.578125 61.308594 68.550781 61.402344 C 68.527344 61.496094 68.503906 61.589844 68.476562 61.683594 C 68.382812 62.058594 68.292969 62.425781 68.203125 62.785156 C 68.160156 62.964844 68.113281 63.140625 68.074219 63.316406 C 68.039062 63.496094 68.003906 63.671875 67.96875 63.84375 C 67.835938 64.539062 67.695312 65.199219 67.621094 65.832031 C 67.539062 66.464844 67.445312 67.058594 67.414062 67.621094 C 67.371094 68.183594 67.324219 68.703125 67.308594 69.183594 C 67.300781 69.664062 67.292969 70.101562 67.292969 70.496094 C 67.296875 70.695312 67.289062 70.878906 67.300781 71.054688 C 67.3125 71.230469 67.324219 71.390625 67.332031 71.546875 C 67.355469 71.847656 67.378906 72.105469 67.40625 72.3125 C 67.460938 72.722656 67.523438 72.9375 67.589844 72.9375 C 67.65625 72.9375 67.726562 72.722656 67.800781 72.316406 C 67.835938 72.117188 67.875 71.863281 67.914062 71.570312 C 67.929688 71.421875 67.949219 71.261719 67.96875 71.09375 C 67.988281 70.921875 68.023438 70.742188 68.050781 70.554688 C 68.109375 70.171875 68.167969 69.75 68.230469 69.289062 C 68.300781 68.828125 68.402344 68.332031 68.492188 67.796875 C 68.570312 67.257812 68.714844 66.695312 68.839844 66.097656 C 68.957031 65.496094 69.136719 64.875 69.304688 64.21875 C 69.347656 64.054688 69.390625 63.886719 69.433594 63.722656 C 69.480469 63.554688 69.535156 63.390625 69.589844 63.21875 C 69.691406 62.882812 69.800781 62.539062 69.910156 62.1875 C 69.9375 62.097656 69.964844 62.011719 69.992188 61.921875 C 70.023438 61.835938 70.054688 61.746094 70.085938 61.660156 C 70.152344 61.480469 70.214844 61.304688 70.28125 61.125 C 70.34375 60.945312 70.410156 60.765625 70.476562 60.582031 C 70.542969 60.398438 70.605469 60.214844 70.683594 60.035156 C 70.992188 59.308594 71.28125 58.546875 71.652344 57.796875 C 71.742188 57.605469 71.832031 57.414062 71.917969 57.222656 C 71.964844 57.128906 72.007812 57.027344 72.054688 56.933594 C 72.105469 56.839844 72.15625 56.746094 72.203125 56.652344 C 72.402344 56.269531 72.605469 55.886719 72.808594 55.496094 C 73.664062 53.964844 74.648438 52.414062 75.773438 50.894531 C 76.910156 49.386719 78.191406 47.921875 79.601562 46.527344 C 79.777344 46.355469 79.953125 46.183594 80.132812 46.011719 C 80.308594 45.839844 80.484375 45.671875 80.667969 45.511719 C 81.035156 45.191406 81.394531 44.871094 81.753906 44.550781 C 82.128906 44.25 82.496094 43.953125 82.867188 43.65625 L 83.140625 43.4375 L 83.421875 43.230469 C 83.609375 43.09375 83.796875 42.957031 83.984375 42.820312 C 85.480469 41.738281 86.984375 40.789062 88.480469 40.011719 C 88.664062 39.910156 88.851562 39.8125 89.03125 39.710938 C 89.21875 39.617188 89.40625 39.53125 89.589844 39.441406 C 89.957031 39.265625 90.324219 39.089844 90.683594 38.914062 C 91.046875 38.757812 91.410156 38.605469 91.761719 38.457031 C 91.941406 38.378906 92.117188 38.304688 92.292969 38.230469 C 92.46875 38.164062 92.644531 38.097656 92.820312 38.03125 C 93.167969 37.902344 93.511719 37.773438 93.851562 37.648438 C 94.1875 37.523438 94.527344 37.425781 94.855469 37.316406 C 95.183594 37.210938 95.507812 37.101562 95.824219 37.007812 C 96.144531 36.921875 96.457031 36.835938 96.765625 36.75 C 97.070312 36.671875 97.367188 36.578125 97.660156 36.511719 C 97.957031 36.449219 98.242188 36.382812 98.519531 36.320312 C 98.800781 36.257812 99.070312 36.1875 99.332031 36.132812 C 99.597656 36.085938 99.855469 36.039062 100.101562 35.996094 C 101.09375 35.789062 101.957031 35.6875 102.664062 35.566406 C 103.015625 35.496094 103.332031 35.472656 103.605469 35.425781 C 103.878906 35.386719 104.109375 35.347656 104.296875 35.308594 C 104.667969 35.226562 104.867188 35.152344 104.867188 35.078125 Z M 104.867188 35.078125 " fill-opacity="1" fill-rule="nonzero"/><path fill="#000000" d="M 117.910156 105.328125 C 117.929688 105.398438 118.140625 105.402344 118.519531 105.347656 C 118.710938 105.316406 118.945312 105.273438 119.21875 105.21875 C 119.492188 105.15625 119.8125 105.097656 120.15625 104.984375 C 120.851562 104.773438 121.707031 104.519531 122.660156 104.121094 C 122.902344 104.027344 123.152344 103.925781 123.410156 103.824219 C 123.664062 103.714844 123.917969 103.589844 124.1875 103.46875 C 124.453125 103.34375 124.726562 103.214844 125.007812 103.082031 C 125.292969 102.953125 125.566406 102.789062 125.855469 102.636719 C 126.144531 102.480469 126.4375 102.320312 126.738281 102.15625 C 127.039062 101.988281 127.332031 101.796875 127.640625 101.609375 C 127.945312 101.417969 128.261719 101.238281 128.570312 101.027344 C 128.875 100.8125 129.1875 100.59375 129.507812 100.375 C 129.664062 100.261719 129.828125 100.152344 129.988281 100.035156 C 130.144531 99.917969 130.300781 99.792969 130.460938 99.671875 C 130.777344 99.421875 131.097656 99.171875 131.425781 98.917969 C 131.738281 98.644531 132.058594 98.367188 132.382812 98.089844 C 132.542969 97.949219 132.707031 97.808594 132.867188 97.664062 C 133.023438 97.511719 133.183594 97.359375 133.34375 97.207031 C 134.628906 96.007812 135.871094 94.613281 137.058594 93.078125 C 137.203125 92.882812 137.351562 92.691406 137.5 92.496094 L 137.722656 92.203125 L 137.933594 91.898438 C 138.210938 91.488281 138.496094 91.074219 138.777344 90.660156 C 139.042969 90.226562 139.308594 89.792969 139.578125 89.355469 C 139.714844 89.140625 139.839844 88.914062 139.960938 88.6875 C 140.085938 88.457031 140.210938 88.230469 140.335938 88.003906 C 141.316406 86.160156 142.132812 84.273438 142.777344 82.386719 C 143.410156 80.492188 143.875 78.605469 144.203125 76.785156 C 144.269531 76.324219 144.339844 75.871094 144.40625 75.425781 C 144.421875 75.3125 144.441406 75.203125 144.457031 75.089844 C 144.472656 74.980469 144.480469 74.867188 144.492188 74.757812 C 144.515625 74.535156 144.535156 74.3125 144.558594 74.09375 C 144.664062 73.21875 144.6875 72.359375 144.726562 71.53125 C 144.742188 71.324219 144.738281 71.117188 144.738281 70.914062 C 144.734375 70.710938 144.734375 70.507812 144.734375 70.308594 C 144.734375 70.105469 144.730469 69.910156 144.730469 69.710938 C 144.730469 69.613281 144.730469 69.515625 144.730469 69.417969 C 144.722656 69.320312 144.71875 69.222656 144.714844 69.128906 C 144.691406 68.742188 144.671875 68.363281 144.648438 67.996094 C 144.636719 67.808594 144.628906 67.628906 144.613281 67.445312 C 144.59375 67.265625 144.574219 67.089844 144.554688 66.914062 C 144.476562 66.207031 144.414062 65.539062 144.292969 64.910156 C 144.183594 64.28125 144.097656 63.6875 143.960938 63.140625 C 143.832031 62.59375 143.726562 62.082031 143.59375 61.617188 C 143.460938 61.15625 143.332031 60.734375 143.214844 60.359375 C 143.15625 60.171875 143.105469 59.992188 143.042969 59.828125 C 142.980469 59.667969 142.921875 59.515625 142.867188 59.371094 C 142.753906 59.089844 142.652344 58.851562 142.566406 58.664062 C 142.390625 58.285156 142.269531 58.097656 142.207031 58.117188 C 142.140625 58.136719 142.136719 58.363281 142.1875 58.773438 C 142.214844 58.976562 142.253906 59.226562 142.304688 59.519531 C 142.332031 59.667969 142.359375 59.824219 142.390625 59.992188 C 142.425781 60.160156 142.445312 60.339844 142.476562 60.53125 C 142.535156 60.914062 142.601562 61.332031 142.683594 61.792969 C 142.753906 62.253906 142.804688 62.757812 142.878906 63.296875 C 142.960938 63.832031 142.996094 64.410156 143.054688 65.019531 C 143.121094 65.628906 143.136719 66.277344 143.167969 66.953125 C 143.179688 67.121094 143.1875 67.292969 143.195312 67.464844 C 143.199219 67.636719 143.195312 67.8125 143.195312 67.988281 C 143.195312 68.34375 143.199219 68.703125 143.199219 69.074219 C 143.199219 69.164062 143.199219 69.257812 143.199219 69.351562 C 143.195312 69.441406 143.1875 69.535156 143.183594 69.628906 C 143.175781 69.816406 143.167969 70.003906 143.160156 70.195312 C 143.152344 70.386719 143.144531 70.578125 143.132812 70.773438 C 143.125 70.96875 143.121094 71.160156 143.097656 71.359375 C 143.023438 72.144531 142.972656 72.957031 142.84375 73.78125 C 142.816406 73.988281 142.789062 74.199219 142.757812 74.40625 C 142.746094 74.511719 142.734375 74.617188 142.714844 74.722656 C 142.699219 74.828125 142.679688 74.933594 142.65625 75.039062 C 142.582031 75.460938 142.503906 75.886719 142.425781 76.320312 C 142.066406 78.035156 141.589844 79.808594 140.96875 81.59375 C 140.332031 83.367188 139.546875 85.152344 138.617188 86.898438 C 138.5 87.113281 138.378906 87.332031 138.261719 87.546875 C 138.148438 87.761719 138.03125 87.976562 137.898438 88.183594 C 137.648438 88.597656 137.398438 89.011719 137.148438 89.421875 C 136.882812 89.820312 136.617188 90.214844 136.355469 90.605469 L 136.160156 90.898438 L 135.949219 91.179688 C 135.8125 91.367188 135.675781 91.554688 135.539062 91.738281 C 134.429688 93.214844 133.277344 94.570312 132.082031 95.753906 C 131.933594 95.90625 131.789062 96.054688 131.644531 96.207031 C 131.496094 96.351562 131.339844 96.488281 131.191406 96.628906 C 130.894531 96.90625 130.597656 97.183594 130.308594 97.457031 C 130.003906 97.710938 129.707031 97.964844 129.410156 98.214844 C 129.265625 98.339844 129.121094 98.464844 128.972656 98.589844 C 128.824219 98.703125 128.675781 98.820312 128.527344 98.933594 C 128.234375 99.164062 127.945312 99.386719 127.660156 99.609375 C 127.375 99.828125 127.082031 100.019531 126.800781 100.222656 C 126.515625 100.417969 126.242188 100.621094 125.964844 100.804688 C 125.6875 100.980469 125.414062 101.15625 125.144531 101.328125 C 124.875 101.492188 124.625 101.671875 124.359375 101.820312 C 124.097656 101.972656 123.84375 102.117188 123.597656 102.261719 C 123.351562 102.402344 123.113281 102.546875 122.878906 102.679688 C 122.640625 102.804688 122.410156 102.925781 122.183594 103.042969 C 121.300781 103.53125 120.507812 103.886719 119.871094 104.210938 C 119.550781 104.378906 119.257812 104.5 119.011719 104.621094 C 118.761719 104.742188 118.554688 104.847656 118.386719 104.941406 C 118.054688 105.128906 117.886719 105.261719 117.910156 105.328125 Z M 117.910156 105.328125 " fill-opacity="1" fill-rule="nonzero"/><path fill="#000000" d="M 77.476562 23.867188 L 77.476562 23.890625 C 74.945312 23.984375 72.425781 24.800781 70.820312 26.503906 C 69.34375 28.066406 68.679688 30.417969 68.597656 32.746094 L 68.578125 32.746094 C 68.480469 30.222656 67.660156 27.703125 65.957031 26.101562 C 64.390625 24.628906 62.03125 23.972656 59.699219 23.886719 L 59.699219 23.867188 C 62.230469 23.769531 64.75 22.953125 66.355469 21.253906 C 67.832031 19.6875 68.492188 17.335938 68.578125 15.011719 L 68.597656 15.011719 C 68.695312 17.535156 69.515625 20.050781 71.21875 21.652344 C 72.785156 23.125 75.144531 23.785156 77.476562 23.867188 Z M 77.476562 23.867188 " fill-opacity="1" fill-rule="nonzero"/><g clip-path="url(#0125374401)"><path fill="#000000" d="M 172.359375 60.941406 L 172.359375 60.960938 C 169.828125 61.058594 167.308594 61.875 165.703125 63.574219 C 164.226562 65.140625 163.566406 67.492188 163.480469 69.816406 L 163.460938 69.816406 C 163.363281 67.296875 162.542969 64.777344 160.839844 63.175781 C 159.273438 61.703125 156.914062 61.046875 154.582031 60.960938 L 154.582031 60.941406 C 157.113281 60.84375 159.636719 60.027344 161.238281 58.328125 C 162.714844 56.761719 163.378906 54.410156 163.460938 52.085938 L 163.480469 52.085938 C 163.578125 54.609375 164.398438 57.125 166.101562 58.726562 C 167.667969 60.199219 170.027344 60.859375 172.359375 60.941406 Z M 172.359375 60.941406 " fill-opacity="1" fill-rule="nonzero"/></g><path fill="#000000" d="M 164.757812 101.238281 L 164.757812 101.25 C 163.183594 101.3125 161.609375 101.820312 160.609375 102.878906 C 159.6875 103.855469 159.277344 105.324219 159.222656 106.773438 L 159.210938 106.773438 C 159.148438 105.199219 158.640625 103.628906 157.578125 102.632812 C 156.597656 101.710938 155.128906 101.300781 153.675781 101.25 L 153.675781 101.238281 C 155.253906 101.175781 156.824219 100.667969 157.824219 99.609375 C 158.746094 98.632812 159.160156 97.164062 159.210938 95.714844 L 159.222656 95.714844 C 159.285156 97.289062 159.796875 98.855469 160.859375 99.855469 C 161.835938 100.773438 163.304688 101.1875 164.757812 101.238281 Z M 164.757812 101.238281 " fill-opacity="1" fill-rule="nonzero"/><path fill="#000000" d="M 53.820312 59.828125 L 53.820312 59.839844 C 52.289062 59.898438 50.761719 60.390625 49.789062 61.421875 C 48.898438 62.367188 48.496094 63.789062 48.445312 65.199219 L 48.433594 65.199219 C 48.375 63.671875 47.878906 62.148438 46.847656 61.179688 C 45.902344 60.285156 44.472656 59.890625 43.0625 59.839844 L 43.0625 59.828125 C 44.59375 59.769531 46.121094 59.273438 47.089844 58.246094 C 47.984375 57.296875 48.386719 55.875 48.4375 54.46875 L 48.445312 54.46875 C 48.507812 55.992188 49.003906 57.515625 50.035156 58.488281 C 50.980469 59.378906 52.410156 59.777344 53.820312 59.828125 Z M 53.820312 59.828125 " fill-opacity="1" fill-rule="nonzero"/><path fill="#000000" d="M 154.085938 34.734375 L 154.085938 34.746094 C 152.554688 34.804688 151.03125 35.296875 150.058594 36.324219 C 149.164062 37.273438 148.765625 38.695312 148.714844 40.105469 L 148.703125 40.105469 C 148.644531 38.578125 148.148438 37.054688 147.117188 36.085938 C 146.167969 35.191406 144.742188 34.792969 143.332031 34.742188 L 143.332031 34.730469 C 144.863281 34.671875 146.386719 34.179688 147.359375 33.148438 C 148.253906 32.203125 148.652344 30.78125 148.703125 29.371094 L 148.714844 29.371094 C 148.773438 30.898438 149.269531 32.421875 150.300781 33.390625 C 151.25 34.285156 152.675781 34.683594 154.085938 34.734375 Z M 154.085938 34.734375 " fill-opacity="1" fill-rule="nonzero"/><g clip-path="url(#d56983dce4)"><path fill="#000000" d="M 56.824219 95.707031 L 56.824219 95.722656 C 54.804688 95.800781 52.785156 96.453125 51.503906 97.8125 C 50.320312 99.0625 49.792969 100.945312 49.726562 102.804688 L 49.710938 102.804688 C 49.632812 100.789062 48.976562 98.773438 47.613281 97.492188 C 46.363281 96.316406 44.476562 95.789062 42.613281 95.722656 L 42.613281 95.707031 C 44.632812 95.628906 46.652344 94.976562 47.933594 93.617188 C 49.117188 92.363281 49.644531 90.484375 49.710938 88.625 L 49.726562 88.625 C 49.804688 90.640625 50.460938 92.652344 51.824219 93.933594 C 53.074219 95.113281 54.960938 95.640625 56.824219 95.707031 Z M 56.824219 95.707031 " fill-opacity="1" fill-rule="nonzero"/></g><g fill="#000000" fill-opacity="1"><g transform="translate(172.062063, 101.142857)"><g><path d="M 5.5625 0 L 5.5625 -38.609375 L 14.875 -38.609375 L 14.875 -33.421875 L 15.609375 -33.28125 C 16.867188 -35.363281 18.34375 -36.894531 20.03125 -37.875 C 21.726562 -38.851562 23.894531 -39.34375 26.53125 -39.34375 C 29.445312 -39.34375 31.789062 -38.765625 33.5625 -37.609375 C 35.34375 -36.453125 36.640625 -34.765625 37.453125 -32.546875 L 38.1875 -32.546875 C 39.375 -34.859375 40.90625 -36.566406 42.78125 -37.671875 C 44.664062 -38.785156 47.007812 -39.34375 49.8125 -39.34375 C 57.8125 -39.34375 61.8125 -34.882812 61.8125 -25.96875 L 61.8125 0 L 52.125 0 L 52.125 -24.75 C 52.125 -27.007812 51.675781 -28.640625 50.78125 -29.640625 C 49.894531 -30.648438 48.472656 -31.15625 46.515625 -31.15625 C 41.191406 -31.15625 38.53125 -27.597656 38.53125 -20.484375 L 38.53125 0 L 28.84375 0 L 28.84375 -24.75 C 28.84375 -27.007812 28.390625 -28.640625 27.484375 -29.640625 C 26.585938 -30.648438 25.160156 -31.15625 23.203125 -31.15625 C 20.710938 -31.15625 18.765625 -30.316406 17.359375 -28.640625 C 15.960938 -26.972656 15.265625 -24.320312 15.265625 -20.6875 L 15.265625 0 Z M 5.5625 0 "/></g></g></g><g fill="#000000" fill-opacity="1"><g transform="translate(238.844669, 101.142857)"><g><path d="M 5.5625 0 L 5.5625 -38.609375 L 14.984375 -38.609375 L 14.984375 -32.875 L 15.71875 -32.734375 C 16.644531 -34.878906 17.867188 -36.453125 19.390625 -37.453125 C 20.910156 -38.453125 22.753906 -38.953125 24.921875 -38.953125 C 27.117188 -38.953125 28.785156 -38.582031 29.921875 -37.84375 L 28.28125 -29.46875 L 27.546875 -29.328125 C 26.921875 -29.585938 26.316406 -29.773438 25.734375 -29.890625 C 25.148438 -30.003906 24.4375 -30.0625 23.59375 -30.0625 C 20.882812 -30.0625 18.816406 -29.109375 17.390625 -27.203125 C 15.972656 -25.304688 15.265625 -22.257812 15.265625 -18.0625 L 15.265625 0 Z M 5.5625 0 "/></g></g></g><g fill="#000000" fill-opacity="1"><g transform="translate(269.120862, 101.142857)"><g><path d="M 15.046875 0.734375 C 12.578125 0.734375 10.429688 0.28125 8.609375 -0.625 C 6.785156 -1.539062 5.382812 -2.878906 4.40625 -4.640625 C 3.425781 -6.398438 2.9375 -8.515625 2.9375 -10.984375 C 2.9375 -13.273438 3.425781 -15.195312 4.40625 -16.75 C 5.382812 -18.300781 6.898438 -19.570312 8.953125 -20.5625 C 11.015625 -21.550781 13.703125 -22.316406 17.015625 -22.859375 C 19.328125 -23.234375 21.082031 -23.640625 22.28125 -24.078125 C 23.476562 -24.523438 24.285156 -25.023438 24.703125 -25.578125 C 25.128906 -26.140625 25.34375 -26.851562 25.34375 -27.71875 C 25.34375 -28.957031 24.910156 -29.898438 24.046875 -30.546875 C 23.179688 -31.203125 21.742188 -31.53125 19.734375 -31.53125 C 17.585938 -31.53125 15.546875 -31.050781 13.609375 -30.09375 C 11.679688 -29.144531 10.003906 -27.890625 8.578125 -26.328125 L 7.875 -26.328125 L 3.8125 -32.453125 C 5.769531 -34.617188 8.160156 -36.304688 10.984375 -37.515625 C 13.816406 -38.734375 16.898438 -39.34375 20.234375 -39.34375 C 25.335938 -39.34375 29.035156 -38.253906 31.328125 -36.078125 C 33.617188 -33.910156 34.765625 -30.832031 34.765625 -26.84375 L 34.765625 -10.078125 C 34.765625 -8.347656 35.519531 -7.484375 37.03125 -7.484375 C 37.613281 -7.484375 38.1875 -7.59375 38.75 -7.8125 L 39.234375 -7.671875 L 39.9375 -0.90625 C 39.40625 -0.5625 38.660156 -0.273438 37.703125 -0.046875 C 36.742188 0.171875 35.691406 0.28125 34.546875 0.28125 C 32.234375 0.28125 30.429688 -0.160156 29.140625 -1.046875 C 27.847656 -1.929688 26.921875 -3.320312 26.359375 -5.21875 L 25.625 -5.28125 C 23.726562 -1.269531 20.203125 0.734375 15.046875 0.734375 Z M 18.125 -6.515625 C 20.375 -6.515625 22.164062 -7.265625 23.5 -8.765625 C 24.84375 -10.273438 25.515625 -12.367188 25.515625 -15.046875 L 25.515625 -18.96875 L 24.859375 -19.109375 C 24.273438 -18.640625 23.507812 -18.25 22.5625 -17.9375 C 21.613281 -17.625 20.253906 -17.316406 18.484375 -17.015625 C 16.378906 -16.660156 14.863281 -16.054688 13.9375 -15.203125 C 13.019531 -14.359375 12.5625 -13.15625 12.5625 -11.59375 C 12.5625 -9.925781 13.050781 -8.660156 14.03125 -7.796875 C 15.007812 -6.941406 16.375 -6.515625 18.125 -6.515625 Z M 18.125 -6.515625 "/></g></g></g><g fill="#000000" fill-opacity="1"><g transform="translate(309.827462, 101.142857)"><g><path d="M 22.5 0.734375 C 18.769531 0.734375 15.46875 -0.0390625 12.59375 -1.59375 C 9.726562 -3.144531 7.488281 -5.425781 5.875 -8.4375 C 4.269531 -11.445312 3.46875 -15.0625 3.46875 -19.28125 C 3.46875 -23.53125 4.269531 -27.160156 5.875 -30.171875 C 7.488281 -33.179688 9.71875 -35.460938 12.5625 -37.015625 C 15.414062 -38.566406 18.671875 -39.34375 22.328125 -39.34375 C 30.472656 -39.34375 35.691406 -36.390625 37.984375 -30.484375 L 31.328125 -25.734375 L 30.59375 -25.734375 C 29.800781 -27.546875 28.769531 -28.894531 27.5 -29.78125 C 26.226562 -30.675781 24.503906 -31.125 22.328125 -31.125 C 19.523438 -31.125 17.34375 -30.15625 15.78125 -28.21875 C 14.21875 -26.28125 13.4375 -23.300781 13.4375 -19.28125 C 13.4375 -15.320312 14.226562 -12.363281 15.8125 -10.40625 C 17.40625 -8.457031 19.632812 -7.484375 22.5 -7.484375 C 24.601562 -7.484375 26.382812 -8.050781 27.84375 -9.1875 C 29.300781 -10.320312 30.347656 -11.953125 30.984375 -14.078125 L 31.71875 -14.140625 L 38.609375 -10.359375 C 37.628906 -7.085938 35.8125 -4.421875 33.15625 -2.359375 C 30.507812 -0.296875 26.957031 0.734375 22.5 0.734375 Z M 22.5 0.734375 "/></g></g></g><g fill="#000000" fill-opacity="1"><g transform="translate(349.624027, 101.142857)"><g><path d="M 26.640625 -9.203125 L 29.15625 -2.03125 C 28.101562 -1.164062 26.785156 -0.488281 25.203125 0 C 23.617188 0.488281 21.820312 0.734375 19.8125 0.734375 C 15.632812 0.734375 12.457031 -0.398438 10.28125 -2.671875 C 8.113281 -4.953125 7.03125 -8.257812 7.03125 -12.59375 L 7.03125 -30.9375 L 1.15625 -30.9375 L 1.15625 -38.640625 L 7.03125 -38.640625 L 7.03125 -46.171875 L 16.734375 -47.75 L 16.734375 -38.640625 L 27.6875 -38.640625 L 27.6875 -30.9375 L 16.734375 -30.9375 L 16.734375 -13.296875 C 16.734375 -11.390625 17.128906 -10 17.921875 -9.125 C 18.710938 -8.25 19.867188 -7.8125 21.390625 -7.8125 C 23.117188 -7.8125 24.625 -8.273438 25.90625 -9.203125 Z M 26.640625 -9.203125 "/></g></g></g></svg>